<?xml version="1.0" encoding="UTF-8"?>
<svg id="Layer_2" data-name="Layer 2" xmlns="http://www.w3.org/2000/svg" viewBox="0 0 1326.06 372.13">
  <defs>
    <style>
      .cls-1 {
        fill: #fff;
        stroke-width: 0px;
      }
    </style>
  </defs>
  <g id="Layer_1-2" data-name="Layer 1">
    <g>
      <path class="cls-1" d="m967.14,75.7c-1.32,4.2-1.38,9.14-1.98,13.28-1.47,10.14-2.94,20.29-4.41,30.43-4.01,27.66-8.01,55.31-12.02,82.97-1.63,11.22-3.25,22.45-4.88,33.67-1.03,7.1-5.28,19.87,1.99,24.53l.51.3c2.74,1.5,6.01,1.55,9.14,1.56,8.56.04,17.13.08,25.69.11,13.62.06,13.91-12.83,15.34-23.46,2.36-17.62,4.72-35.24,7.09-52.86,1.43-10.68,2.88-21.42,6.26-31.65,3.38-10.23,8.84-20.02,17.12-26.91,6.32-5.26,14.43-8.69,22.71-8.83,5.34-.09,17.61,4.31,21.69-.32,1.23-1.4,2.01-3.14,2.79-4.83,3.87-8.31,8.52-16.26,13.88-23.7,4.75-6.59,12.81-12.48,7.6-21.24-1.43-2.4-8.08-7.4-32.32-5.76-16.19,1.06-28.15,12.98-39.17,23.49-.19.18-.4.37-.65.43-.74.16-1.19-.83-1.17-1.59.1-6.25,6.33-14.13-2.4-17.81-2.5-1.06-5.3-1.11-8.02-1.14-8.3-.11-16.6-.22-24.9-.32-4.6-.06-9.39-.08-13.56,1.88-3.46,1.63-5.27,4.47-6.31,7.77Z"/>
      <path class="cls-1" d="m205.26,78.3c-10.03-9.76-24.03-14.73-37.98-15.84-10.11-.8-20.27.3-30.18,2.3-9.15,1.84-16.46,5.13-23.73,11.14-.42.35-1.11.67-1.42.23-.11-.15-.12-.34-.12-.53-.04-1.75.35-3.63-.48-5.17-.77-1.43-2.4-2.16-3.96-2.64-6.07-1.89-12.24-1.28-18.48-1.45-6.79-.18-13.61,0-20.4,0-4.94,0-10.69-.72-15.52.5-3.19.81-6.26,2.51-8.58,4.85-2.19,2.21-3.03,4.78-3.53,7.69-.08.45-.15.9-.21,1.36-2.36,16.67-4.72,33.34-7.07,50.02-1.75,12.36-3.52,24.71-5.28,37.07-1.75,12.33-3.51,24.66-5.26,36.99-1.73,12.13-3.45,24.26-5.18,36.39-1.54,10.84-3.08,21.68-4.63,32.52-1.2,8.46-9.56,61.88-10.76,70.34-.71,4.98-1.42,9.97-2.13,14.95-.12.87-.25,1.74-.37,2.61,0,0,.69,9.23,8.22,9.23h38.89s9.77-.94,12.16-13.74c2.4-12.78,16.19-110.44,17.09-110.69,1.61-.46,5.37,4.98,6.35,5.93,2.48,2.4,5.25,4.5,8.21,6.29,6.09,3.69,12.96,6.07,19.99,7.1,12.47,1.83,25.3-.36,37.1-4.79,24.84-9.33,45.42-28.54,58.34-51.72,12.91-23.17,18.42-50.09,17.84-76.61-.43-19.69-4.82-40.64-18.93-54.36Zm-43.29,97.82c-11.92,28.54-36.55,45.43-55.01,37.72-18.46-7.71-23.76-37.1-11.84-65.64,11.92-28.54,36.55-45.43,55.01-37.72,18.46,7.71,23.76,37.1,11.84,65.64Z"/>
      <path class="cls-1" d="m1252.14,115.6c-3.09-13.72-9.31-27.11-19.82-36.72-9.72-8.9-22.49-14.02-35.51-16.09-32.05-5.09-65.62,8.24-88.16,31.58-18.21,18.86-29.84,43.94-34.2,69.67-1.77,10.47-3.01,21.09-2.53,31.72.56,12.47,3.59,25.04,10.34,35.54,7.36,11.44,18.77,19.84,31.12,25.53,24.56,11.3,53.4,12.21,78.72,2.84,7.73-2.86,15.06-6.92,21.81-11.64,6.31-4.41,28.83-19.49,19.62-28.69l-19.15-17.32s-5.91-4.69-13.45,3.26c0,0-10.39,14.67-35.45,16.3,0,0-21.39,2.44-34.03-11.82,0,0-8.96-9.78-7.34-24.86l.41-3.26s111.59.1,112.47,0c2.47-.28,12.43-3.87,14.87-21.39,2.11-15.15,3.67-29.53.27-44.64Zm-120.07,27.76c12.55-25.58,35.42-40.13,52.8-32.87,6.44,2.7,11.29,8.03,14.35,15.06,2.25,5.15,3.55,11.22,3.81,17.81h-70.96Z"/>
      <path class="cls-1" d="m902.8,21.32c-23.09,7.39-48.8,17.16-70.9,32.55-21.06,14.64-41.03,34.58-57.74,57.67-22.84,31.51-42.25,65.38-60.19,97.38-14.03,25.03-28.77,48.09-54.41,54.96-5.32,1.42-11,2.16-16.84,2.16-12.1,0-23.48-3.1-32.13-8.68-9.87-6.39-13.84-18.97-15.97-27.84-3.77-15.61-6.32-30.58-7.55-44.45-.32-3.42-.71-6.9-1.1-10.39-.84-7.42-1.68-15.1-1.68-22.35,0-.16-.03-.32-.03-.45-.74-8.81-4.39-10.64-7.32-10.64-1.97,0-4.68.9-6.45,5.26-.16.42-.29.87-.36,1.35-.29.58-1.06,1.74-1.52,2.42-.58.81-1.06,1.55-1.36,2.1l-4.61,8.39c-2.84,5.13-5.64,10.26-8.52,15.35-9.61,17.1-19.61,34.22-29.67,50.96l-.48.77c-7.48,12.45-15.26,25.32-28.32,31.03-8.32,3.64-18.87,6.16-29.64,7.13-2.03.16-4,.26-5.87.26-8.81,0-16.19-1.97-21.9-5.84-5.94-4.03-13.13-11.77-15.03-19.35-1.23-5-1.52-10.71-1.84-16.22-.06-1.48-.13-2.94-.23-4.35-.48-7.16-.77-14.71-.94-23.06-.03-1.52-.05-3.03-.07-4.56-.09-7.99.96-15.94,3.08-23.63.62-2.23,1.11-4.63,1.47-7.23,2.23-16.13,3.94-32.03.06-49.25-1.2-5.31-2.77-10.39-4.68-15.17-1.91-4.78-3.46-9.67-4.41-14.73-1.02-5.43-2.34-10.94-4.1-16.35-.13-.42-.26-.94-.45-1.52-.94-3.35-1.9-6.35-3.58-8.61,2.39-.55,5.16-.68,7.68-.81l1.61-.1c2.87-.13,5.87-.23,9.16-.23s6.52.1,9.77.19c2.19.06,4.52.1,6.9.13,11.32.13,24.13.29,32.48,6.16,4.9,3.42,7.39,9.97,7.39,19.39v98.38c0,2.24,1.37,4.33,3.51,5.03.6.2,1.18.29,1.82.29,1.77,0,3.48-.9,4.48-2.45,3.52-5.55,7.03-11.06,10.58-16.58,11.52-18,23.9-37.29,36.64-56.77,4.61-7.03,9.29-14.03,13.97-21l1.42-2.13c7.87-11.77,19-19.48,32.13-22.22,2.29-.48,4.61-.74,6.9-.74,6.81,0,13.19,2.19,18.51,6.35,23.8,18.58,25.16,57.48,26.13,85.9.06,1.61.06,3.23.1,4.84.1,4.06.16,8.26.64,12.48.64,6.06,2.93,9.03,6.9,9.03,1.06,0,2.71-.29,4.32-1.71,2.16-1.9,3.35-4.55,4.29-6.68.19-.48.42-.94.61-1.32,1.74-3.55,3.45-7.13,5.13-10.71l1.81-3.81c8.03-16.9,18.9-39.09,31.45-60.67,16.39-28.13,30.74-47.8,46.51-63.8,12.03-12.19,22.32-19.61,33.38-24.03,3.65-1.45,7.58-2.71,11.68-3.77,12.97-3.32,26.61-5.03,40.48-5.03,22.71,0,44.35,4.58,62.61,13.19,5.22,2.45,10.03,5.19,14.26,8.13Z"/>
      <path class="cls-1" d="m935.45,99.35c-4.03-13.35-13.77-25.03-26.42-31.03-8.98-4.26-18.94-5.97-28.81-6.37-11.08-.45-22.33.33-33.01,3.47-2.34.69-4.74,1.31-6.94,2.36-2.15,1.02-4.26,2.12-6.34,3.28-4.16,2.32-8.16,4.9-11.99,7.72-7.66,5.65-14.62,12.25-20.65,19.61-3.68,4.5-7.6,9.39-9.86,14.75-.65,1.55-1.2,3.14-1.63,4.76-.51,1.94-.98,3.89-1.41,5.86,0,0-3.45,8.97,7.13,8.97,7,0,16.16,1.77,21.97-2.74,2.68-2.1,4.77-4.84,7.13-7.29,7.55-7.87,18-12.87,28.87-13.81,6.94-.61,14.19.48,20.06,4.26,5.29,3.42,8.68,8.81,9.58,15.03.36,2.68.58,5.42.55,8.13-.03,4.23-1.45,4.9-5.68,5.52-22.9,3.32-45.8,7.1-67.93,13.9-7.97,2.45-15.87,5.35-22.9,9.84-10.74,6.9-19,17.51-23.51,29.45-4.55,11.93-5.45,25.16-3.1,37.74.81,4.35,2.03,8.68,4.26,12.52,4.06,7.06,11.22,11.84,18.68,15.1,19.39,8.45,42.51,7.81,61.41-1.68,3.64-1.84,7.13-4,10.48-6.26,3-2.03,5.64-5.48,9.29-6.29.77,2.35.29,4.9.13,7.35-.16,2.48.16,5.26,2,6.87,1.39,1.23,3.29,1.55,5.1,1.74,10.93,1.23,22.26.42,33.26.42,0,0,11.81-.26,13.22-10.61,2.55-16.29,5.03-32.61,7.45-48.96,3.81-25.64,7.71-51.32,10.52-77.12.97-8.97,1.77-17.64-.9-26.48Zm-80.77,117.64c-24.93,15.22-37.32,4.42-39.96,1.26-13.06-32.35,61.16-40.48,61.16-40.48-3.16,27.58-15.22,35.35-21.19,39.22Z"/>
      <path class="cls-1" d="m412.2,115.6c-3.09-13.72-9.31-27.11-19.82-36.72-9.72-8.9-22.49-14.02-35.51-16.09-32.05-5.09-65.62,8.24-88.16,31.58-18.21,18.86-29.84,43.94-34.2,69.67-1.77,10.47-3.01,21.09-2.53,31.72.56,12.47,3.59,25.04,10.34,35.54,7.36,11.44,18.77,19.84,31.12,25.53,24.56,11.3,53.4,12.21,78.72,2.84,7.73-2.86,15.06-6.92,21.81-11.64,6.31-4.41,28.83-19.49,19.62-28.69l-19.15-17.32s-5.91-4.69-13.45,3.26c0,0-10.39,14.67-35.45,16.3,0,0-21.39,2.44-34.03-11.82,0,0-8.96-9.78-7.34-24.86l.41-3.26s111.59.1,112.47,0c2.47-.28,12.43-3.87,14.87-21.39,2.11-15.15,3.67-29.53.27-44.64Zm-120.07,27.76c12.55-25.58,35.42-40.13,52.8-32.87,6.44,2.7,11.29,8.03,14.35,15.06,2.25,5.15,3.55,11.22,3.81,17.81h-70.96Z"/>
    </g>
    <g>
      <path class="cls-1" d="m123.56,325.82h10.83c3.7,0,6.39.86,8.09,2.58,1.7,1.72,2.54,4.36,2.54,7.92v1.83c0,2.35-.38,4.26-1.14,5.74-.76,1.48-1.92,2.54-3.49,3.2v.13c3.56,1.22,5.35,4.39,5.35,9.52v3.91c0,3.52-.92,6.21-2.77,8.05s-4.55,2.77-8.12,2.77h-11.28v-45.65Zm9.98,18.59c1.43,0,2.51-.37,3.23-1.11.72-.74,1.08-1.98,1.08-3.72v-2.54c0-1.65-.29-2.85-.88-3.59-.59-.74-1.51-1.11-2.77-1.11h-3.46v12.06h2.81Zm1.3,20.55c1.26,0,2.2-.34,2.81-1.01.61-.67.91-1.84.91-3.49v-3.98c0-2.09-.36-3.53-1.08-4.34-.72-.8-1.9-1.2-3.55-1.2h-3.2v14.02h4.11Z"/>
      <path class="cls-1" d="m151.22,325.82h19.57v6.52h-12.39v12.06h9.85v6.52h-9.85v14.02h12.39v6.52h-19.57v-45.65Z"/>
      <path class="cls-1" d="m194.52,352.04l-8.67-26.22h7.63l4.89,16.76h.13l4.89-16.76h6.98l-8.67,26.22v19.44h-7.17v-19.44Z"/>
      <path class="cls-1" d="m216.04,369.13c-1.87-2-2.81-4.83-2.81-8.48v-24c0-3.65.93-6.48,2.81-8.48,1.87-2,4.56-3,8.09-3s6.22,1,8.09,3c1.87,2,2.8,4.83,2.8,8.48v24c0,3.65-.93,6.48-2.8,8.48-1.87,2-4.57,3-8.09,3s-6.22-1-8.09-3Zm11.81-8.02v-24.91c0-3-1.24-4.5-3.72-4.5s-3.72,1.5-3.72,4.5v24.91c0,3,1.24,4.5,3.72,4.5s3.72-1.5,3.72-4.5Z"/>
      <path class="cls-1" d="m243.63,369.16c-1.83-1.98-2.74-4.82-2.74-8.51v-34.83h7.17v35.35c0,1.56.31,2.7.95,3.39.63.7,1.53,1.04,2.71,1.04s2.08-.35,2.71-1.04c.63-.69.95-1.83.95-3.39v-35.35h6.91v34.83c0,3.69-.91,6.53-2.74,8.51-1.83,1.98-4.48,2.97-7.96,2.97s-6.13-.99-7.96-2.97Z"/>
      <path class="cls-1" d="m268.68,325.82h10.63c3.69,0,6.39.86,8.09,2.58,1.69,1.72,2.54,4.36,2.54,7.92v2.8c0,4.74-1.56,7.74-4.69,9v.13c1.74.52,2.97,1.59,3.68,3.2s1.08,3.76,1.08,6.46v8.02c0,1.3.04,2.36.13,3.16.09.81.3,1.6.65,2.38h-7.31c-.26-.74-.44-1.44-.52-2.09-.09-.65-.13-1.83-.13-3.52v-8.35c0-2.09-.34-3.54-1.01-4.37-.68-.82-1.84-1.24-3.49-1.24h-2.48v19.57h-7.17v-45.65Zm9.78,19.56c1.44,0,2.51-.37,3.23-1.11s1.08-1.98,1.08-3.72v-3.52c0-1.65-.29-2.85-.88-3.59-.59-.74-1.51-1.11-2.77-1.11h-3.26v13.04h2.61Z"/>
      <path class="cls-1" d="m308,325.82h7.17v39.13h11.81v6.52h-18.98v-45.65Z"/>
      <path class="cls-1" d="m331.74,325.82h7.17v45.65h-7.17v-45.65Z"/>
      <path class="cls-1" d="m345.57,325.82h18.98v6.52h-11.81v12.72h9.26v6.52h-9.26v19.89h-7.17v-45.65Z"/>
      <path class="cls-1" d="m369.31,325.82h19.57v6.52h-12.39v12.06h9.85v6.52h-9.85v14.02h12.39v6.52h-19.57v-45.65Z"/>
    </g>
    <g>
      <path class="cls-1" d="m1306.86,91.58c-.66-1.21-1.4-2.1-2.21-2.65-.36-.24-.75-.42-1.16-.56.77-.16,1.49-.39,2.15-.68,1.48-.66,2.6-1.63,3.37-2.9.77-1.27,1.16-2.78,1.16-4.55,0-2.73-.86-4.84-2.56-6.33-1.71-1.49-4.14-2.23-7.28-2.23h-12.08v29.16h4.3v-12.04h4.67c.8,0,1.5.08,2.09.23.59.15,1.12.43,1.57.83.46.4.88.96,1.26,1.68l5.05,9.31h4.71l-5.05-9.26Zm-14.31-6v-10.46h7.07c2.09,0,3.68.44,4.76,1.32,1.08.88,1.61,2.18,1.61,3.89s-.54,3.05-1.61,3.93c-1.08.88-2.66,1.32-4.76,1.32h-7.07Z"/>
      <path class="cls-1" d="m1299.91,112.42c-14.42,0-26.15-11.73-26.15-26.15,0-14.42,11.73-26.15,26.15-26.15s26.15,11.73,26.15,26.15-11.73,26.15-26.15,26.15Zm0-49.81c-13.05,0-23.66,10.61-23.66,23.66s10.61,23.66,23.66,23.66,23.66-10.61,23.66-23.66-10.61-23.66-23.66-23.66Z"/>
    </g>
  </g>
</svg>